{
 "cells": [
  {
   "cell_type": "code",
   "execution_count": 2,
   "metadata": {},
   "outputs": [
    {
     "name": "stdout",
     "output_type": "stream",
     "text": [
      "[ 0.   0.5  1.   1.5  2.   2.5  3.   3.5  4.   4.5  5.   5.5  6.   6.5\n",
      "  7.   7.5  8.   8.5  9.   9.5 10.  10.5 11.  11.5 12.  12.5 13.  13.5\n",
      " 14.  14.5 15.  15.5 16.  16.5 17. ]\n"
     ]
    }
   ],
   "source": [
    "import pretty_midi\n",
    "\n",
    "# Load MIDI file into PrettyMIDI object\n",
    "midi_data = pretty_midi.PrettyMIDI('adj_sim_outputs\\midi\\simulation.mid')\n",
    "\n",
    "# Retrieve the list of beat times\n",
    "beat_times = midi_data.get_beats()\n",
    "\n",
    "print(beat_times)"
   ]
  },
  {
   "cell_type": "code",
   "execution_count": 49,
   "metadata": {},
   "outputs": [],
   "source": [
    "# play the midi file in adj_sim_outputs\\midi\\output.mid\n",
    "import pygame\n",
    "pygame.init()\n",
    "pygame.mixer.music.load('adj_sim_outputs\\midi\\simulation.mid')\n",
    "pygame.mixer.music.play()\n",
    "pygame.time.wait(5000) # let the music play for 5 seconds\n",
    "pygame.mixer.music.stop() # stop the music\n",
    "pygame.quit()\n"
   ]
  },
  {
   "cell_type": "code",
   "execution_count": 31,
   "metadata": {},
   "outputs": [],
   "source": [
    "# play the midi file in adj_sim_outputs\\midi\\output.mid\n",
    "import pygame\n",
    "pygame.init()\n",
    "pygame.mixer.music.load('adj_sim_outputs\\midi\\interesting_1.mid')\n",
    "pygame.mixer.music.play()\n",
    "pygame.time.wait(5000) # let the music play for 5 seconds\n",
    "pygame.mixer.music.stop() # stop the music\n",
    "pygame.quit()\n"
   ]
  },
  {
   "cell_type": "code",
   "execution_count": 16,
   "metadata": {},
   "outputs": [
    {
     "name": "stdout",
     "output_type": "stream",
     "text": [
      "Track 0: \n",
      "MetaMessage('set_tempo', tempo=308223, time=0)\n",
      "MetaMessage('time_signature', numerator=4, denominator=4, clocks_per_click=24, notated_32nd_notes_per_beat=8, time=0)\n",
      "MetaMessage('key_signature', key='D', time=0)\n",
      "program_change channel=0 program=0 time=0\n",
      "note_on channel=0 note=73 velocity=51 time=0\n",
      "note_on channel=0 note=58 velocity=62 time=1\n",
      "note_on channel=0 note=85 velocity=66 time=3\n",
      "note_off channel=0 note=58 velocity=62 time=6\n",
      "note_on channel=0 note=20 velocity=62 time=5\n",
      "note_off channel=0 note=85 velocity=66 time=7\n",
      "note_on channel=0 note=73 velocity=66 time=6\n",
      "note_on channel=0 note=23 velocity=56 time=8\n",
      "note_off channel=0 note=20 velocity=62 time=10\n",
      "note_on channel=0 note=109 velocity=62 time=9\n",
      "note_off channel=0 note=73 velocity=66 time=12\n",
      "note_on channel=0 note=74 velocity=51 time=10\n",
      "note_off channel=0 note=74 velocity=51 time=15\n",
      "note_on channel=0 note=33 velocity=51 time=14\n",
      "note_off channel=0 note=23 velocity=56 time=16\n",
      "note_on channel=0 note=58 velocity=56 time=15\n",
      "note_off channel=0 note=58 velocity=56 time=20\n",
      "note_on channel=0 note=100 velocity=56 time=19\n",
      "note_on channel=0 note=73 velocity=54 time=19\n",
      "note_on channel=0 note=86 velocity=61 time=20\n",
      "note_off channel=0 note=109 velocity=62 time=22\n",
      "note_on channel=0 note=27 velocity=62 time=21\n",
      "note_off channel=0 note=23 velocity=56 time=23\n",
      "note_on channel=0 note=73 velocity=54 time=22\n",
      "note_off channel=0 note=33 velocity=51 time=23\n",
      "note_on channel=0 note=39 velocity=51 time=22\n",
      "note_on channel=0 note=95 velocity=70 time=23\n",
      "note_off channel=0 note=73 velocity=54 time=26\n",
      "note_on channel=0 note=98 velocity=66 time=23\n",
      "note_off channel=0 note=73 velocity=54 time=27\n",
      "note_on channel=0 note=101 velocity=54 time=24\n",
      "note_off channel=0 note=73 velocity=54 time=27\n",
      "note_on channel=0 note=98 velocity=54 time=24\n",
      "note_off channel=0 note=39 velocity=51 time=26\n",
      "note_on channel=0 note=30 velocity=51 time=25\n",
      "note_on channel=0 note=94 velocity=69 time=28\n",
      "note_off channel=0 note=86 velocity=61 time=29\n",
      "note_on channel=0 note=16 velocity=61 time=28\n",
      "note_on channel=0 note=62 velocity=44 time=29\n",
      "note_off channel=0 note=98 velocity=54 time=32\n",
      "note_on channel=0 note=41 velocity=66 time=30\n",
      "note_off channel=0 note=101 velocity=54 time=31\n",
      "note_on channel=0 note=27 velocity=54 time=30\n",
      "note_off channel=0 note=41 velocity=66 time=32\n",
      "note_on channel=0 note=27 velocity=66 time=31\n",
      "note_off channel=0 note=27 velocity=66 time=34\n",
      "note_on channel=0 note=98 velocity=62 time=32\n",
      "note_off channel=0 note=100 velocity=56 time=33\n",
      "note_on channel=0 note=23 velocity=56 time=32\n",
      "note_off channel=0 note=30 velocity=51 time=34\n",
      "note_on channel=0 note=25 velocity=51 time=33\n",
      "note_on channel=0 note=23 velocity=46 time=34\n",
      "note_on channel=0 note=73 velocity=39 time=35\n",
      "note_on channel=0 note=73 velocity=38 time=35\n",
      "note_off channel=0 note=95 velocity=70 time=36\n",
      "note_on channel=0 note=41 velocity=70 time=35\n",
      "note_off channel=0 note=23 velocity=56 time=37\n",
      "note_on channel=0 note=71 velocity=56 time=36\n",
      "note_on channel=0 note=102 velocity=64 time=36\n",
      "note_on channel=0 note=102 velocity=30 time=36\n",
      "note_on channel=0 note=102 velocity=29 time=36\n",
      "note_off channel=0 note=16 velocity=61 time=37\n",
      "note_on channel=0 note=51 velocity=61 time=36\n",
      "note_off channel=0 note=94 velocity=69 time=37\n",
      "note_on channel=0 note=100 velocity=69 time=36\n",
      "note_off channel=0 note=25 velocity=51 time=38\n",
      "note_on channel=0 note=82 velocity=51 time=37\n",
      "note_off channel=0 note=100 velocity=69 time=38\n",
      "note_on channel=0 note=77 velocity=69 time=37\n",
      "note_off channel=0 note=27 velocity=54 time=39\n",
      "note_on channel=0 note=25 velocity=54 time=38\n",
      "note_off channel=0 note=98 velocity=62 time=41\n",
      "note_on channel=0 note=39 velocity=54 time=39\n",
      "note_off channel=0 note=27 velocity=66 time=42\n",
      "note_on channel=0 note=39 velocity=66 time=40\n",
      "note_on channel=0 note=92 velocity=34 time=41\n",
      "note_off channel=0 note=71 velocity=56 time=42\n",
      "note_on channel=0 note=20 velocity=56 time=41\n",
      "note_off channel=0 note=39 velocity=66 time=42\n",
      "note_on channel=0 note=41 velocity=66 time=41\n",
      "note_off channel=0 note=25 velocity=54 time=42\n",
      "note_on channel=0 note=58 velocity=54 time=41\n",
      "note_off channel=0 note=39 velocity=54 time=43\n",
      "note_on channel=0 note=80 velocity=54 time=42\n",
      "note_on channel=0 note=84 velocity=59 time=43\n",
      "note_on channel=0 note=84 velocity=22 time=43\n",
      "note_off channel=0 note=73 velocity=38 time=45\n",
      "note_on channel=0 note=27 velocity=39 time=43\n",
      "note_off channel=0 note=98 velocity=62 time=46\n",
      "note_on channel=0 note=23 velocity=62 time=44\n",
      "note_on channel=0 note=84 velocity=62 time=44\n",
      "note_on channel=0 note=84 velocity=19 time=44\n",
      "note_off channel=0 note=51 velocity=61 time=46\n",
      "note_on channel=0 note=101 velocity=61 time=45\n",
      "note_off channel=0 note=73 velocity=38 time=48\n",
      "note_on channel=0 note=25 velocity=38 time=46\n",
      "note_off channel=0 note=58 velocity=54 time=47\n",
      "note_on channel=0 note=20 velocity=54 time=46\n",
      "note_off channel=0 note=80 velocity=54 time=49\n",
      "note_on channel=0 note=27 velocity=54 time=48\n",
      "note_off channel=0 note=92 velocity=34 time=49\n",
      "note_on channel=0 note=27 velocity=34 time=48\n",
      "note_off channel=0 note=77 velocity=69 time=50\n",
      "note_on channel=0 note=23 velocity=69 time=49\n",
      "note_off channel=0 note=23 velocity=62 time=50\n",
      "note_on channel=0 note=101 velocity=62 time=49\n",
      "note_off channel=0 note=41 velocity=66 time=51\n",
      "note_on channel=0 note=85 velocity=70 time=49\n",
      "note_off channel=0 note=23 velocity=69 time=51\n",
      "note_on channel=0 note=90 velocity=49 time=50\n",
      "note_off channel=0 note=27 velocity=54 time=52\n",
      "note_on channel=0 note=89 velocity=54 time=51\n",
      "note_off channel=0 note=82 velocity=51 time=52\n",
      "note_on channel=0 note=27 velocity=51 time=51\n",
      "note_off channel=0 note=84 velocity=22 time=54\n",
      "note_on channel=0 note=40 velocity=59 time=52\n",
      "note_off channel=0 note=25 velocity=38 time=53\n",
      "note_on channel=0 note=94 velocity=38 time=52\n",
      "note_off channel=0 note=101 velocity=62 time=55\n",
      "note_on channel=0 note=98 velocity=61 time=53\n",
      "note_off channel=0 note=94 velocity=38 time=54\n",
      "note_on channel=0 note=56 velocity=38 time=53\n",
      "note_off channel=0 note=89 velocity=54 time=54\n",
      "note_on channel=0 note=94 velocity=54 time=53\n",
      "note_off channel=0 note=27 velocity=34 time=55\n",
      "note_on channel=0 note=86 velocity=34 time=54\n",
      "note_off channel=0 note=41 velocity=66 time=56\n",
      "note_on channel=0 note=92 velocity=66 time=54\n",
      "note_off channel=0 note=90 velocity=49 time=57\n",
      "note_on channel=0 note=40 velocity=49 time=56\n",
      "note_on channel=0 note=62 velocity=14 time=56\n",
      "note_on channel=0 note=58 velocity=9 time=56\n",
      "note_off channel=0 note=20 velocity=54 time=59\n",
      "note_on channel=0 note=78 velocity=56 time=57\n",
      "note_off channel=0 note=56 velocity=38 time=58\n",
      "note_on channel=0 note=51 velocity=38 time=57\n",
      "note_off channel=0 note=84 velocity=19 time=60\n",
      "note_on channel=0 note=40 velocity=62 time=58\n",
      "note_off channel=0 note=27 velocity=51 time=60\n",
      "note_on channel=0 note=80 velocity=51 time=59\n",
      "note_off channel=0 note=84 velocity=22 time=61\n",
      "note_on channel=0 note=74 velocity=22 time=59\n",
      "note_off channel=0 note=27 velocity=39 time=61\n",
      "note_on channel=0 note=84 velocity=39 time=60\n",
      "note_off channel=0 note=94 velocity=54 time=61\n",
      "note_on channel=0 note=92 velocity=54 time=60\n",
      "note_off channel=0 note=80 velocity=51 time=62\n",
      "note_on channel=0 note=109 velocity=51 time=61\n",
      "note_off channel=0 note=85 velocity=70 time=62\n",
      "note_on channel=0 note=56 velocity=70 time=61\n",
      "note_off channel=0 note=98 velocity=61 time=62\n",
      "note_on channel=0 note=78 velocity=61 time=61\n",
      "note_off channel=0 note=40 velocity=62 time=65\n",
      "note_on channel=0 note=82 velocity=59 time=62\n",
      "note_off channel=0 note=82 velocity=59 time=64\n",
      "note_on channel=0 note=20 velocity=59 time=63\n",
      "note_off channel=0 note=51 velocity=38 time=65\n",
      "note_on channel=0 note=16 velocity=38 time=64\n",
      "note_off channel=0 note=101 velocity=62 time=67\n",
      "note_on channel=0 note=89 velocity=62 time=65\n",
      "note_off channel=0 note=78 velocity=61 time=68\n",
      "note_on channel=0 note=51 velocity=56 time=66\n",
      "note_off channel=0 note=62 velocity=14 time=68\n",
      "note_on channel=0 note=90 velocity=44 time=66\n",
      "note_off channel=0 note=58 velocity=9 time=67\n",
      "note_on channel=0 note=20 velocity=9 time=66\n",
      "note_off channel=0 note=84 velocity=19 time=68\n",
      "note_on channel=0 note=27 velocity=19 time=66\n",
      "note_off channel=0 note=20 velocity=9 time=69\n",
      "note_on channel=0 note=16 velocity=54 time=66\n",
      "note_off channel=0 note=109 velocity=51 time=68\n",
      "note_on channel=0 note=56 velocity=51 time=67\n",
      "note_off channel=0 note=78 velocity=61 time=71\n",
      "note_on channel=0 note=27 velocity=61 time=69\n",
      "note_off channel=0 note=27 velocity=61 time=71\n",
      "note_on channel=0 note=82 velocity=61 time=70\n",
      "note_off channel=0 note=56 velocity=51 time=72\n",
      "note_on channel=0 note=27 velocity=70 time=70\n",
      "note_off channel=0 note=20 velocity=9 time=73\n",
      "note_on channel=0 note=84 velocity=59 time=70\n",
      "note_off channel=0 note=92 velocity=54 time=73\n",
      "note_on channel=0 note=56 velocity=66 time=71\n",
      "note_on channel=0 note=84 velocity=4 time=71\n",
      "note_off channel=0 note=74 velocity=22 time=72\n",
      "note_on channel=0 note=33 velocity=22 time=71\n",
      "note_off channel=0 note=27 velocity=19 time=72\n",
      "note_on channel=0 note=20 velocity=19 time=71\n",
      "note_off channel=0 note=90 velocity=44 time=73\n",
      "note_on channel=0 note=58 velocity=44 time=72\n",
      "note_off channel=0 note=16 velocity=54 time=74\n",
      "note_on channel=0 note=25 velocity=38 time=72\n",
      "note_off channel=0 note=40 velocity=62 time=76\n",
      "note_on channel=0 note=90 velocity=49 time=73\n",
      "note_off channel=0 note=20 velocity=19 time=75\n",
      "note_on channel=0 note=95 velocity=9 time=73\n",
      "note_off channel=0 note=56 velocity=66 time=75\n",
      "note_on channel=0 note=16 velocity=51 time=73\n",
      "note_off channel=0 note=58 velocity=44 time=75\n",
      "note_on channel=0 note=27 velocity=44 time=74\n",
      "note_off channel=0 note=16 velocity=51 time=76\n",
      "note_on channel=0 note=39 velocity=54 time=74\n",
      "note_off channel=0 note=92 velocity=54 time=76\n",
      "note_on channel=0 note=27 velocity=54 time=74\n",
      "note_off channel=0 note=27 velocity=44 time=77\n",
      "note_on channel=0 note=109 velocity=70 time=75\n",
      "note_off channel=0 note=102 velocity=29 time=77\n",
      "note_on channel=0 note=73 velocity=64 time=75\n",
      "note_off channel=0 note=86 velocity=34 time=77\n",
      "note_on channel=0 note=23 velocity=34 time=76\n",
      "note_off channel=0 note=23 velocity=34 time=77\n",
      "note_on channel=0 note=109 velocity=46 time=76\n",
      "note_off channel=0 note=89 velocity=62 time=77\n",
      "note_on channel=0 note=51 velocity=62 time=76\n",
      "note_off channel=0 note=40 velocity=62 time=80\n",
      "note_on channel=0 note=102 velocity=62 time=77\n",
      "note_off channel=0 note=109 velocity=46 time=81\n",
      "note_on channel=0 note=23 velocity=70 time=79\n",
      "note_off channel=0 note=27 velocity=44 time=82\n",
      "note_on channel=0 note=80 velocity=44 time=80\n",
      "note_off channel=0 note=16 velocity=51 time=83\n",
      "note_on channel=0 note=78 velocity=51 time=81\n",
      "note_off channel=0 note=56 velocity=66 time=83\n",
      "note_on channel=0 note=16 velocity=66 time=81\n",
      "note_off channel=0 note=73 velocity=64 time=83\n",
      "note_on channel=0 note=40 velocity=64 time=82\n",
      "note_off channel=0 note=78 velocity=51 time=83\n",
      "note_on channel=0 note=27 velocity=51 time=82\n",
      "note_off channel=0 note=95 velocity=9 time=84\n",
      "note_on channel=0 note=74 velocity=9 time=83\n",
      "note_on channel=0 note=84 velocity=6 time=83\n",
      "note_off channel=0 note=90 velocity=49 time=84\n",
      "note_on channel=0 note=82 velocity=49 time=83\n",
      "note_off channel=0 note=109 velocity=46 time=86\n",
      "note_on channel=0 note=30 velocity=46 time=84\n",
      "note_off channel=0 note=80 velocity=44 time=86\n",
      "note_on channel=0 note=85 velocity=44 time=85\n",
      "note_off channel=0 note=62 velocity=14 time=88\n",
      "note_on channel=0 note=34 velocity=14 time=86\n",
      "note_off channel=0 note=51 velocity=62 time=88\n",
      "note_on channel=0 note=94 velocity=56 time=86\n",
      "note_off channel=0 note=20 velocity=19 time=89\n",
      "note_on channel=0 note=73 velocity=19 time=87\n",
      "note_off channel=0 note=82 velocity=49 time=89\n",
      "note_on channel=0 note=62 velocity=61 time=87\n",
      "note_off channel=0 note=39 velocity=54 time=89\n",
      "note_on channel=0 note=100 velocity=54 time=88\n",
      "note_off channel=0 note=27 velocity=51 time=89\n",
      "note_on channel=0 note=101 velocity=51 time=88\n",
      "note_off channel=0 note=25 velocity=38 time=89\n",
      "note_on channel=0 note=30 velocity=38 time=88\n",
      "note_off channel=0 note=27 velocity=54 time=89\n",
      "note_on channel=0 note=111 velocity=54 time=88\n",
      "note_on channel=0 note=102 velocity=24 time=88\n",
      "note_off channel=0 note=74 velocity=9 time=91\n",
      "note_on channel=0 note=84 velocity=9 time=90\n",
      "note_off channel=0 note=40 velocity=64 time=91\n",
      "note_on channel=0 note=58 velocity=64 time=90\n",
      "note_off channel=0 note=33 velocity=22 time=91\n",
      "note_on channel=0 note=94 velocity=22 time=90\n",
      "note_off channel=0 note=100 velocity=54 time=92\n",
      "note_on channel=0 note=94 velocity=54 time=91\n",
      "note_off channel=0 note=30 velocity=38 time=94\n",
      "note_on channel=0 note=102 velocity=46 time=92\n",
      "note_off channel=0 note=34 velocity=14 time=93\n",
      "note_on channel=0 note=27 velocity=14 time=92\n",
      "note_off channel=0 note=101 velocity=51 time=94\n",
      "note_on channel=0 note=58 velocity=51 time=93\n",
      "note_off channel=0 note=16 velocity=66 time=94\n",
      "note_on channel=0 note=23 velocity=66 time=93\n",
      "note_off channel=0 note=23 velocity=70 time=94\n",
      "note_on channel=0 note=77 velocity=69 time=93\n",
      "note_on channel=0 note=84 velocity=64 time=95\n",
      "note_off channel=0 note=73 velocity=19 time=96\n",
      "note_on channel=0 note=51 velocity=19 time=95\n",
      "note_off channel=0 note=84 velocity=4 time=98\n",
      "note_on channel=0 note=73 velocity=39 time=96\n",
      "note_off channel=0 note=30 velocity=38 time=98\n",
      "note_on channel=0 note=84 velocity=38 time=96\n",
      "note_off channel=0 note=84 velocity=9 time=98\n",
      "note_on channel=0 note=86 velocity=9 time=97\n",
      "note_off channel=0 note=51 velocity=19 time=100\n",
      "note_on channel=0 note=84 velocity=62 time=98\n",
      "note_on channel=0 note=73 velocity=60 time=98\n",
      "note_off channel=0 note=27 velocity=14 time=99\n",
      "note_on channel=0 note=84 velocity=14 time=98\n",
      "note_on channel=0 note=23 velocity=64 time=99\n",
      "note_off channel=0 note=85 velocity=44 time=100\n",
      "note_on channel=0 note=41 velocity=44 time=99\n",
      "note_on channel=0 note=84 velocity=56 time=100\n",
      "note_on channel=0 note=30 velocity=30 time=102\n",
      "note_off channel=0 note=73 velocity=60 time=105\n",
      "note_on channel=0 note=23 velocity=69 time=105\n",
      "note_on channel=0 note=58 velocity=22 time=105\n",
      "note_on channel=0 note=77 velocity=51 time=105\n",
      "note_on channel=0 note=98 velocity=39 time=106\n",
      "note_on channel=0 note=71 velocity=59 time=107\n",
      "note_on channel=0 note=20 velocity=61 time=108\n",
      "note_on channel=0 note=27 velocity=30 time=108\n",
      "note_on channel=0 note=39 velocity=29 time=108\n",
      "note_on channel=0 note=109 velocity=44 time=108\n",
      "note_on channel=0 note=85 velocity=29 time=109\n",
      "note_on channel=0 note=85 velocity=20 time=109\n",
      "note_on channel=0 note=85 velocity=14 time=109\n",
      "note_off channel=0 note=77 velocity=51 time=112\n",
      "note_off channel=0 note=23 velocity=66 time=111\n",
      "note_off channel=0 note=84 velocity=14 time=112\n",
      "note_off channel=0 note=84 velocity=56 time=116\n",
      "note_off channel=0 note=51 velocity=19 time=113\n",
      "note_off channel=0 note=84 velocity=62 time=112\n",
      "note_off channel=0 note=89 velocity=62 time=114\n",
      "note_off channel=0 note=23 velocity=69 time=115\n",
      "note_off channel=0 note=111 velocity=54 time=114\n",
      "note_off channel=0 note=86 velocity=9 time=114\n",
      "note_off channel=0 note=94 velocity=54 time=116\n",
      "note_off channel=0 note=82 velocity=49 time=116\n",
      "note_off channel=0 note=73 velocity=60 time=117\n",
      "note_off channel=0 note=89 velocity=62 time=117\n",
      "note_off channel=0 note=27 velocity=6 time=117\n",
      "note_off channel=0 note=71 velocity=59 time=116\n",
      "note_off channel=0 note=98 velocity=66 time=118\n",
      "note_off channel=0 note=78 velocity=4 time=117\n",
      "note_on channel=0 note=77 velocity=9 time=117\n",
      "note_on channel=0 note=51 velocity=6 time=117\n",
      "note_on channel=0 note=33 velocity=54 time=117\n",
      "note_off channel=0 note=30 velocity=34 time=118\n",
      "note_off channel=0 note=109 velocity=19 time=120\n",
      "note_off channel=0 note=39 velocity=69 time=120\n",
      "note_off channel=0 note=20 velocity=60 time=123\n",
      "note_off channel=0 note=84 velocity=14 time=123\n",
      "note_off channel=0 note=27 velocity=14 time=123\n",
      "note_off channel=0 note=86 velocity=4 time=125\n",
      "note_on channel=0 note=92 velocity=54 time=124\n",
      "note_off channel=0 note=34 velocity=69 time=125\n",
      "note_off channel=0 note=109 velocity=44 time=127\n",
      "note_off channel=0 note=109 velocity=19 time=127\n",
      "note_on channel=0 note=73 velocity=59 time=127\n",
      "note_on channel=0 note=25 velocity=60 time=127\n",
      "note_on channel=0 note=20 velocity=70 time=128\n",
      "note_on channel=0 note=58 velocity=22 time=128\n",
      "note_on channel=0 note=82 velocity=54 time=128\n",
      "note_on channel=0 note=39 velocity=39 time=128\n",
      "note_on channel=0 note=84 velocity=34 time=129\n",
      "note_on channel=0 note=111 velocity=19 time=130\n",
      "note_off channel=0 note=27 velocity=14 time=133\n",
      "note_off channel=0 note=77 velocity=9 time=135\n",
      "note_off channel=0 note=84 velocity=49 time=132\n",
      "note_off channel=0 note=77 velocity=9 time=136\n",
      "note_off channel=0 note=51 velocity=6 time=134\n",
      "note_off channel=0 note=98 velocity=66 time=135\n",
      "note_off channel=0 note=20 velocity=70 time=134\n",
      "note_off channel=0 note=33 velocity=61 time=136\n",
      "note_off channel=0 note=58 velocity=22 time=135\n",
      "note_off channel=0 note=111 velocity=70 time=137\n",
      "note_off channel=0 note=77 velocity=66 time=138\n",
      "note_off channel=0 note=84 velocity=34 time=136\n",
      "note_off channel=0 note=27 velocity=51 time=136\n",
      "note_on channel=0 note=23 velocity=59 time=137\n",
      "note_off channel=0 note=25 velocity=60 time=138\n",
      "note_off channel=0 note=62 velocity=59 time=139\n",
      "note_off channel=0 note=71 velocity=4 time=139\n",
      "note_off channel=0 note=33 velocity=61 time=140\n",
      "note_off channel=0 note=111 velocity=70 time=140\n",
      "note_on channel=0 note=23 velocity=49 time=138\n",
      "note_on channel=0 note=84 velocity=29 time=138\n",
      "note_on channel=0 note=78 velocity=64 time=139\n",
      "note_on channel=0 note=33 velocity=44 time=140\n",
      "note_on channel=0 note=90 velocity=64 time=141\n",
      "note_on channel=0 note=98 velocity=62 time=141\n",
      "note_off channel=0 note=90 velocity=64 time=142\n",
      "note_off channel=0 note=20 velocity=22 time=142\n",
      "note_off channel=0 note=92 velocity=30 time=146\n",
      "note_off channel=0 note=27 velocity=49 time=144\n",
      "note_off channel=0 note=82 velocity=69 time=146\n",
      "note_off channel=0 note=89 velocity=64 time=144\n",
      "note_on channel=0 note=102 velocity=54 time=143\n",
      "note_on channel=0 note=62 velocity=49 time=144\n",
      "note_on channel=0 note=58 velocity=6 time=144\n",
      "note_on channel=0 note=27 velocity=51 time=144\n",
      "note_on channel=0 note=74 velocity=24 time=147\n",
      "note_on channel=0 note=80 velocity=54 time=147\n",
      "note_on channel=0 note=102 velocity=19 time=149\n",
      "note_on channel=0 note=95 velocity=64 time=150\n",
      "note_on channel=0 note=98 velocity=54 time=150\n",
      "note_on channel=0 note=56 velocity=62 time=150\n",
      "note_on channel=0 note=40 velocity=62 time=151\n",
      "note_on channel=0 note=30 velocity=24 time=151\n",
      "note_on channel=0 note=58 velocity=46 time=152\n",
      "note_on channel=0 note=78 velocity=59 time=152\n",
      "note_on channel=0 note=27 velocity=9 time=153\n",
      "note_on channel=0 note=58 velocity=54 time=153\n",
      "note_on channel=0 note=30 velocity=69 time=155\n",
      "note_on channel=0 note=84 velocity=24 time=156\n",
      "note_on channel=0 note=40 velocity=64 time=157\n",
      "note_on channel=0 note=95 velocity=22 time=157\n",
      "note_on channel=0 note=27 velocity=59 time=158\n",
      "note_on channel=0 note=85 velocity=9 time=159\n",
      "note_off channel=0 note=102 velocity=19 time=166\n",
      "note_off channel=0 note=84 velocity=24 time=165\n",
      "note_off channel=0 note=85 velocity=9 time=170\n",
      "note_off channel=0 note=30 velocity=69 time=164\n",
      "note_off channel=0 note=27 velocity=51 time=163\n",
      "note_off channel=0 note=78 velocity=51 time=167\n",
      "note_off channel=0 note=82 velocity=69 time=166\n",
      "note_off channel=0 note=39 velocity=39 time=165\n",
      "note_off channel=0 note=16 velocity=61 time=166\n",
      "note_off channel=0 note=56 velocity=62 time=165\n",
      "note_off channel=0 note=33 velocity=44 time=166\n",
      "note_off channel=0 note=71 velocity=68 time=166\n",
      "note_off channel=0 note=40 velocity=64 time=171\n",
      "note_off channel=0 note=77 velocity=66 time=169\n",
      "note_off channel=0 note=39 velocity=66 time=168\n",
      "note_off channel=0 note=111 velocity=44 time=168\n",
      "note_on channel=0 note=102 velocity=34 time=170\n",
      "note_off channel=0 note=109 velocity=38 time=171\n",
      "note_off channel=0 note=92 velocity=66 time=172\n",
      "note_off channel=0 note=58 velocity=54 time=174\n",
      "note_off channel=0 note=23 velocity=44 time=177\n",
      "note_off channel=0 note=98 velocity=54 time=175\n",
      "note_off channel=0 note=58 velocity=54 time=176\n",
      "note_on channel=0 note=58 velocity=26 time=173\n",
      "note_on channel=0 note=27 velocity=64 time=175\n",
      "note_on channel=0 note=77 velocity=56 time=175\n",
      "note_on channel=0 note=84 velocity=61 time=176\n",
      "note_on channel=0 note=39 velocity=54 time=176\n",
      "note_on channel=0 note=111 velocity=34 time=176\n",
      "note_on channel=0 note=27 velocity=60 time=177\n",
      "note_on channel=0 note=73 velocity=66 time=178\n",
      "note_on channel=0 note=109 velocity=6 time=178\n",
      "note_on channel=0 note=111 velocity=42 time=178\n",
      "note_on channel=0 note=94 velocity=4 time=179\n",
      "note_on channel=0 note=40 velocity=30 time=179\n",
      "note_on channel=0 note=34 velocity=69 time=180\n",
      "note_on channel=0 note=94 velocity=62 time=180\n",
      "note_on channel=0 note=95 velocity=54 time=180\n",
      "note_off channel=0 note=84 velocity=46 time=181\n",
      "note_off channel=0 note=40 velocity=30 time=186\n",
      "note_off channel=0 note=73 velocity=66 time=183\n",
      "note_on channel=0 note=84 velocity=44 time=182\n",
      "note_on channel=0 note=30 velocity=34 time=182\n",
      "note_on channel=0 note=56 velocity=38 time=182\n",
      "note_on channel=0 note=109 velocity=50 time=183\n",
      "note_on channel=0 note=100 velocity=69 time=183\n",
      "note_on channel=0 note=58 velocity=59 time=183\n",
      "note_on channel=0 note=98 velocity=66 time=184\n",
      "note_on channel=0 note=27 velocity=56 time=184\n",
      "note_on channel=0 note=62 velocity=22 time=184\n",
      "note_on channel=0 note=84 velocity=42 time=184\n",
      "note_on channel=0 note=95 velocity=6 time=186\n",
      "note_on channel=0 note=33 velocity=39 time=186\n",
      "note_on channel=0 note=100 velocity=54 time=186\n",
      "note_on channel=0 note=82 velocity=61 time=186\n",
      "note_on channel=0 note=90 velocity=38 time=188\n",
      "note_on channel=0 note=62 velocity=64 time=188\n",
      "note_on channel=0 note=51 velocity=44 time=189\n",
      "note_on channel=0 note=111 velocity=68 time=189\n",
      "note_on channel=0 note=27 velocity=34 time=190\n",
      "note_on channel=0 note=23 velocity=10 time=192\n",
      "note_off channel=0 note=62 velocity=64 time=195\n",
      "note_off channel=0 note=27 velocity=34 time=194\n",
      "note_off channel=0 note=84 velocity=42 time=199\n",
      "note_off channel=0 note=16 velocity=70 time=198\n",
      "note_off channel=0 note=94 velocity=62 time=199\n",
      "note_off channel=0 note=34 velocity=69 time=198\n",
      "note_off channel=0 note=85 velocity=9 time=206\n",
      "note_off channel=0 note=111 velocity=68 time=199\n",
      "note_off channel=0 note=33 velocity=39 time=200\n",
      "note_off channel=0 note=80 velocity=14 time=201\n",
      "note_off channel=0 note=80 velocity=14 time=202\n",
      "note_on channel=0 note=92 velocity=18 time=200\n",
      "note_on channel=0 note=92 velocity=2 time=200\n",
      "note_on channel=0 note=80 velocity=38 time=200\n",
      "note_on channel=0 note=58 velocity=26 time=201\n",
      "note_on channel=0 note=101 velocity=66 time=201\n",
      "note_on channel=0 note=73 velocity=46 time=202\n",
      "note_on channel=0 note=109 velocity=61 time=202\n",
      "note_on channel=0 note=25 velocity=54 time=202\n",
      "note_on channel=0 note=62 velocity=46 time=202\n",
      "note_on channel=0 note=41 velocity=69 time=203\n",
      "note_on channel=0 note=71 velocity=59 time=203\n",
      "note_on channel=0 note=74 velocity=69 time=203\n",
      "note_on channel=0 note=85 velocity=29 time=204\n",
      "note_on channel=0 note=84 velocity=44 time=204\n",
      "note_on channel=0 note=27 velocity=52 time=204\n",
      "note_on channel=0 note=82 velocity=38 time=205\n",
      "note_on channel=0 note=23 velocity=64 time=205\n",
      "note_off channel=0 note=74 velocity=69 time=206\n",
      "note_off channel=0 note=84 velocity=44 time=207\n",
      "note_off channel=0 note=94 velocity=62 time=208\n",
      "note_off channel=0 note=41 velocity=69 time=208\n",
      "note_off channel=0 note=95 velocity=69 time=209\n",
      "note_off channel=0 note=58 velocity=26 time=210\n",
      "note_off channel=0 note=27 velocity=52 time=211\n",
      "note_off channel=0 note=109 velocity=61 time=212\n",
      "note_off channel=0 note=20 velocity=39 time=211\n",
      "note_off channel=0 note=62 velocity=46 time=214\n",
      "note_off channel=0 note=94 velocity=59 time=212\n",
      "note_off channel=0 note=40 velocity=30 time=216\n",
      "note_off channel=0 note=78 velocity=51 time=215\n",
      "note_off channel=0 note=84 velocity=44 time=213\n",
      "note_off channel=0 note=100 velocity=54 time=215\n",
      "note_off channel=0 note=102 velocity=29 time=217\n",
      "note_off channel=0 note=40 velocity=30 time=217\n",
      "note_off channel=0 note=73 velocity=46 time=214\n",
      "note_off channel=0 note=27 velocity=42 time=213\n",
      "note_off channel=0 note=84 velocity=46 time=215\n",
      "note_off channel=0 note=56 velocity=70 time=214\n",
      "note_off channel=0 note=33 velocity=59 time=215\n",
      "note_off channel=0 note=27 velocity=69 time=214\n",
      "note_off channel=0 note=82 velocity=6 time=217\n",
      "note_off channel=0 note=27 velocity=52 time=217\n",
      "note_off channel=0 note=39 velocity=54 time=216\n",
      "note_off channel=0 note=100 velocity=70 time=215\n",
      "note_off channel=0 note=80 velocity=69 time=217\n",
      "note_off channel=0 note=80 velocity=69 time=218\n",
      "note_on channel=0 note=58 velocity=24 time=216\n",
      "note_off channel=0 note=23 velocity=50 time=227\n",
      "note_off channel=0 note=58 velocity=26 time=219\n",
      "note_on channel=0 note=58 velocity=56 time=217\n",
      "note_on channel=0 note=109 velocity=52 time=217\n",
      "note_on channel=0 note=84 velocity=60 time=218\n",
      "note_on channel=0 note=62 velocity=39 time=218\n",
      "note_on channel=0 note=89 velocity=38 time=219\n",
      "note_on channel=0 note=82 velocity=64 time=221\n",
      "note_on channel=0 note=89 velocity=6 time=221\n",
      "note_on channel=0 note=94 velocity=56 time=221\n",
      "note_on channel=0 note=56 velocity=69 time=221\n",
      "note_on channel=0 note=71 velocity=66 time=222\n",
      "note_off channel=0 note=92 velocity=2 time=229\n",
      "note_off channel=0 note=84 velocity=14 time=225\n",
      "note_off channel=0 note=27 velocity=66 time=225\n",
      "note_off channel=0 note=71 velocity=66 time=227\n",
      "note_off channel=0 note=85 velocity=42 time=233\n",
      "note_off channel=0 note=20 velocity=22 time=225\n",
      "note_off channel=0 note=102 velocity=22 time=231\n",
      "note_off channel=0 note=98 velocity=24 time=227\n",
      "note_off channel=0 note=40 velocity=30 time=232\n",
      "note_off channel=0 note=109 velocity=52 time=229\n",
      "note_off channel=0 note=51 velocity=54 time=230\n",
      "note_on channel=0 note=94 velocity=49 time=228\n",
      "note_on channel=0 note=94 velocity=34 time=228\n",
      "note_on channel=0 note=27 velocity=4 time=228\n",
      "note_on channel=0 note=39 velocity=69 time=228\n",
      "note_on channel=0 note=84 velocity=60 time=229\n",
      "note_on channel=0 note=100 velocity=38 time=230\n",
      "note_on channel=0 note=84 velocity=4 time=231\n",
      "note_on channel=0 note=89 velocity=51 time=231\n",
      "note_on channel=0 note=111 velocity=44 time=231\n",
      "note_on channel=0 note=109 velocity=66 time=231\n",
      "note_on channel=0 note=98 velocity=34 time=233\n",
      "note_on channel=0 note=23 velocity=64 time=233\n",
      "note_off channel=0 note=111 velocity=44 time=235\n",
      "note_off channel=0 note=102 velocity=22 time=239\n",
      "note_off channel=0 note=39 velocity=54 time=236\n",
      "note_off channel=0 note=84 velocity=49 time=236\n",
      "note_off channel=0 note=95 velocity=69 time=236\n",
      "note_off channel=0 note=92 velocity=2 time=241\n",
      "note_off channel=0 note=109 velocity=66 time=237\n",
      "note_off channel=0 note=94 velocity=34 time=242\n",
      "note_off channel=0 note=34 velocity=69 time=238\n",
      "note_off channel=0 note=27 velocity=39 time=238\n",
      "note_off channel=0 note=111 velocity=68 time=239\n",
      "note_off channel=0 note=111 velocity=68 time=240\n",
      "note_on channel=0 note=58 velocity=48 time=239\n",
      "note_on channel=0 note=100 velocity=62 time=240\n",
      "note_on channel=0 note=71 velocity=66 time=240\n",
      "note_on channel=0 note=89 velocity=59 time=240\n",
      "note_on channel=0 note=71 velocity=61 time=240\n",
      "note_on channel=0 note=78 velocity=49 time=240\n",
      "note_off channel=0 note=78 velocity=49 time=243\n",
      "note_off channel=0 note=101 velocity=24 time=242\n",
      "note_off channel=0 note=89 velocity=59 time=246\n",
      "note_off channel=0 note=84 velocity=14 time=245\n",
      "note_off channel=0 note=89 velocity=59 time=247\n",
      "note_off channel=0 note=58 velocity=59 time=245\n",
      "note_off channel=0 note=39 velocity=69 time=245\n",
      "note_off channel=0 note=78 velocity=49 time=246\n",
      "note_off channel=0 note=77 velocity=39 time=246\n",
      "note_off channel=0 note=23 velocity=29 time=256\n",
      "note_off channel=0 note=109 velocity=52 time=247\n",
      "MetaMessage('end_of_track', time=0)\n"
     ]
    }
   ],
   "source": [
    "# load the midi file with mido\n",
    "import mido\n",
    "mid = mido.MidiFile('adj_sim_outputs\\midi\\simulation.mid')\n",
    "\n",
    "# check if the midi is within standards\n",
    "for i, track in enumerate(mid.tracks):\n",
    "    print('Track {}: {}'.format(i, track.name))\n",
    "    for msg in track:\n",
    "        print(msg)"
   ]
  },
  {
   "cell_type": "code",
   "execution_count": null,
   "metadata": {},
   "outputs": [],
   "source": [
    "import mido\n",
    "import glob\n",
    "import torch\n",
    "from datasets import generate_piano_roll  # Assuming this function is in datasets.py\n",
    "\n",
    "root_dir = 'data\\\\maestro-v3.0.0'\n",
    "sequence_length = 100\n",
    "beats_length = 50\n",
    "device = 'cpu'\n",
    "\n",
    "file_list = sorted(glob.glob('data\\\\maestro-v3.0.0\\\\**\\\\*.midi', recursive=True))\n",
    "\n",
    "for idx, midi_name in enumerate(file_list):\n",
    "    print(f\"Loading and preprocessing data for index {idx}\")\n",
    "    piano_roll, durations, beats = generate_piano_roll(midi_name, sequence_length, beats_length)\n",
    "    piano_roll = torch.from_numpy(piano_roll).float().to(device)\n",
    "    durations = torch.from_numpy(durations).float().to(device)\n",
    "    beats = torch.from_numpy(beats).float().to(device)\n",
    "    torch.save((piano_roll, durations, beats), f'data\\\\tensors\\\\data_{idx}.pt')"
   ]
  },
  {
   "cell_type": "code",
   "execution_count": 6,
   "metadata": {},
   "outputs": [],
   "source": [
    "import numpy as np\n",
    "\n",
    "def generate_piano_roll(midi_input, sequence_length=300, beats_length=50):\n",
    "    # Check if input is a file path or a mido.MidiFile object\n",
    "    if isinstance(midi_input, str):\n",
    "        midi = mido.MidiFile(midi_input)\n",
    "        pretty_midi_obj = pretty_midi.PrettyMIDI(midi_input)\n",
    "    elif isinstance(midi_input, mido.MidiFile):\n",
    "        midi = midi_input\n",
    "        pretty_midi_obj = pretty_midi.PrettyMIDI(midi.filename)\n",
    "    else:\n",
    "        raise ValueError(\"midi_input must be a file path or a mido.MidiFile object\")\n",
    "    # Initialize piano roll array and duration array\n",
    "    piano_roll = np.zeros((128, sequence_length))\n",
    "    durations = np.zeros((128, sequence_length))\n",
    "\n",
    "    # record total time\n",
    "    total_time = 0\n",
    "\n",
    "    # Convert MIDI events to piano roll representation\n",
    "    my_time = 0\n",
    "    note_on_time = np.zeros(128)  # to keep track of when each note was turned on\n",
    "    for msg in midi:\n",
    "        my_time += msg.time\n",
    "        time_step = int(round(my_time))  # convert time to nearest time step\n",
    "        total_time = time_step\n",
    "        if time_step >= sequence_length :\n",
    "            break  # stop if the sequence length is exceeded\n",
    "        if msg.type == 'note_on':\n",
    "            # We use time_step as the x axis (time step) and note number as the y axis\n",
    "            piano_roll[msg.note, time_step] = msg.velocity\n",
    "            note_on_time[msg.note] = time_step\n",
    "        elif msg.type == 'note_off':\n",
    "            note_off_time = int(round(note_on_time[msg.note]))\n",
    "            durations[msg.note, note_off_time:time_step] = time_step - note_off_time\n",
    "\n",
    "    # Generate beats\n",
    "    beats = pretty_midi_obj.get_beats()\n",
    "\n",
    "    # Ensure beats is of length beats_length\n",
    "    if len(beats) < beats_length:\n",
    "        # If beats is too short, pad it with zeros\n",
    "        beats = np.pad(beats, (0, beats_length - len(beats)))\n",
    "    elif len(beats) > beats_length:\n",
    "        # If beats is too long, truncate it\n",
    "        beats = beats[:beats_length]\n",
    "\n",
    "    del pretty_midi_obj\n",
    "    del midi\n",
    "\n",
    "    return piano_roll, durations, beats, total_time"
   ]
  },
  {
   "cell_type": "code",
   "execution_count": 7,
   "metadata": {},
   "outputs": [
    {
     "name": "stdout",
     "output_type": "stream",
     "text": [
      "Loading and preprocessing data for index 0\n",
      "Loading and preprocessing data for index 50\n",
      "Loading and preprocessing data for index 100\n",
      "Loading and preprocessing data for index 150\n",
      "Loading and preprocessing data for index 200\n",
      "Loading and preprocessing data for index 250\n",
      "Loading and preprocessing data for index 300\n",
      "Loading and preprocessing data for index 350\n",
      "Loading and preprocessing data for index 400\n",
      "Loading and preprocessing data for index 450\n",
      "Loading and preprocessing data for index 500\n",
      "Loading and preprocessing data for index 550\n",
      "Loading and preprocessing data for index 600\n",
      "Loading and preprocessing data for index 650\n",
      "Loading and preprocessing data for index 700\n",
      "Loading and preprocessing data for index 750\n",
      "Loading and preprocessing data for index 800\n",
      "Loading and preprocessing data for index 850\n",
      "Loading and preprocessing data for index 900\n",
      "Loading and preprocessing data for index 950\n",
      "Loading and preprocessing data for index 1000\n",
      "Loading and preprocessing data for index 1050\n",
      "Loading and preprocessing data for index 1100\n",
      "Loading and preprocessing data for index 1150\n",
      "Loading and preprocessing data for index 1200\n",
      "Loading and preprocessing data for index 1250\n",
      "Saving preprocessed data\n"
     ]
    }
   ],
   "source": [
    "import mido\n",
    "import pickle\n",
    "import glob\n",
    "import torch\n",
    "import numpy as np\n",
    "import pretty_midi\n",
    "\n",
    "sequence_length = 300\n",
    "training_size = 30\n",
    "\n",
    "beats_length = 50\n",
    "device = torch.device(\"cuda\" if torch.cuda.is_available() else \"cpu\")\n",
    "\n",
    "file_list = sorted(glob.glob('data\\\\maestro-v3.0.0\\\\**\\\\*.midi', recursive=True))\n",
    "\n",
    "preprocessed_data = []\n",
    "\n",
    "\n",
    "for idx, midi_name in enumerate(file_list):\n",
    "    if idx % 50 == 0:\n",
    "        print(f\"Loading and preprocessing data for index {idx}\")\n",
    "    piano_roll, durations, beats, total_time = generate_piano_roll(midi_name, sequence_length, beats_length)\n",
    "\n",
    "    beats_tensor = torch.from_numpy(beats).float()\n",
    "\n",
    "    number_of_training_samples = int(np.floor(total_time/training_size))\n",
    "    for i in range(number_of_training_samples):\n",
    "        start = i * training_size\n",
    "        end = start + training_size\n",
    "        piano_roll_slice = piano_roll[:, start:start+sequence_length]\n",
    "        durations_slice = durations[:, start:start+sequence_length]\n",
    "\n",
    "        # Check if the slice is of the correct shape\n",
    "        if piano_roll_slice.shape[1] == training_size and durations_slice.shape[1] == training_size and i != 0:\n",
    "            piano_roll_tensor = torch.from_numpy(piano_roll_slice).float()\n",
    "            durations_tensor = torch.from_numpy(durations_slice).float()\n",
    "            preprocessed_data.append((piano_roll_tensor, durations_tensor, beats_tensor))\n",
    "\n",
    "\n",
    "print(\"Saving preprocessed data\")\n",
    "with open('data\\\\preprocessed_data.pkl', 'wb') as f:\n",
    "    pickle.dump(preprocessed_data, f)"
   ]
  },
  {
   "cell_type": "code",
   "execution_count": 1,
   "metadata": {},
   "outputs": [],
   "source": [
    "def generate_piano_roll(midi_input, sequence_length=None, beats_length=50, start=0, end=None):\n",
    "    if sequence_length is None:\n",
    "        sequence_length = end - start\n",
    "    elif end is None:\n",
    "        end = start + sequence_length\n",
    "    # Check if input is a file path or a mido.MidiFile object\n",
    "    if isinstance(midi_input, str):\n",
    "        midi = mido.MidiFile(midi_input)\n",
    "        pretty_midi_obj = pretty_midi.PrettyMIDI(midi_input)\n",
    "    elif isinstance(midi_input, mido.MidiFile):\n",
    "        midi = midi_input\n",
    "        pretty_midi_obj = pretty_midi.PrettyMIDI(midi.filename)\n",
    "    else:\n",
    "        raise ValueError(\"midi_input must be a file path or a mido.MidiFile object\")\n",
    "    # Initialize piano roll array and duration array\n",
    "    piano_roll = np.zeros((128, sequence_length))\n",
    "    durations = np.zeros((128, sequence_length))\n",
    "\n",
    "    # Convert MIDI events to piano roll representation\n",
    "    my_time = 0\n",
    "    note_on_time = np.zeros(128)  # to keep track of when each note was turned on\n",
    "    for msg in midi:\n",
    "        my_time += msg.time\n",
    "        time_step = int(round(my_time))  # convert time to nearest time step\n",
    "        if time_step >= sequence_length:\n",
    "            break  # stop if the sequence length is exceeded\n",
    "        if msg.type == 'note_on':\n",
    "            # We use time_step as the x axis (time step) and note number as the y axis\n",
    "            piano_roll[msg.note, time_step] = msg.velocity\n",
    "            note_on_time[msg.note] = time_step\n",
    "        elif msg.type == 'note_off':\n",
    "            note_off_time = int(round(note_on_time[msg.note]))\n",
    "            durations[msg.note, note_off_time:time_step] = time_step - note_off_time\n",
    "\n",
    "    if end < len(piano_roll):\n",
    "        piano_roll = piano_roll[:, start:end]\n",
    "        durations = durations[:, start:end]\n",
    "    else:\n",
    "        # pad the piano roll and durations with zeros if the sequence length is not reached\n",
    "        piano_roll = np.pad(piano_roll, ((0, 0), (0, sequence_length - piano_roll.shape[1])))\n",
    "        durations = np.pad(durations, ((0, 0), (0, sequence_length - durations.shape[1])))\n",
    "\n",
    "    # Generate beats\n",
    "    beats = pretty_midi_obj.get_beats()\n",
    "\n",
    "    # Ensure beats is of length beats_length\n",
    "    if len(beats) < beats_length:\n",
    "        # If beats is too short, pad it with zeros\n",
    "        beats = np.pad(beats, (0, beats_length - len(beats)))\n",
    "    elif len(beats) > beats_length:\n",
    "        # If beats is too long, truncate it\n",
    "        beats = beats[:beats_length]\n",
    "\n",
    "    del pretty_midi_obj\n",
    "    del midi\n",
    "\n",
    "    return piano_roll, durations, beats\n"
   ]
  },
  {
   "cell_type": "code",
   "execution_count": 6,
   "metadata": {},
   "outputs": [],
   "source": [
    "import matplotlib.pyplot as plt\n",
    "import glob\n",
    "import mido\n",
    "import numpy as np\n",
    "import pretty_midi\n",
    "\n",
    "sequence_length = 100\n",
    "beats_length = 50\n",
    "\n",
    "file_list = sorted(glob.glob('data\\\\maestro-v3.0.0\\\\**\\\\*.midi', recursive=True))\n",
    "\n",
    "\n",
    "# load random midi file from file_list\n",
    "midi_name = file_list[0]\n",
    "piano_roll, durations, beats = generate_piano_roll(midi_name, sequence_length, beats_length, start=30, end=60)\n"
   ]
  },
  {
   "cell_type": "code",
   "execution_count": 7,
   "metadata": {},
   "outputs": [
    {
     "name": "stdout",
     "output_type": "stream",
     "text": [
      "(128, 30)\n",
      "<class 'numpy.ndarray'>\n"
     ]
    }
   ],
   "source": [
    "print(piano_roll.shape)\n",
    "print(type(piano_roll))"
   ]
  },
  {
   "cell_type": "code",
   "execution_count": 8,
   "metadata": {},
   "outputs": [
    {
     "name": "stdout",
     "output_type": "stream",
     "text": [
      "[[0. 0. 0. ... 0. 0. 0.]\n",
      " [0. 0. 0. ... 0. 0. 0.]\n",
      " [0. 0. 0. ... 0. 0. 0.]\n",
      " ...\n",
      " [0. 0. 0. ... 0. 0. 0.]\n",
      " [0. 0. 0. ... 0. 0. 0.]\n",
      " [0. 0. 0. ... 0. 0. 0.]]\n"
     ]
    }
   ],
   "source": [
    "print(piano_roll)"
   ]
  },
  {
   "cell_type": "code",
   "execution_count": 37,
   "metadata": {},
   "outputs": [
    {
     "name": "stdout",
     "output_type": "stream",
     "text": [
      "[107.  72.  15.  29.  41.  14.]\n"
     ]
    }
   ],
   "source": [
    "# randome 10, 10 matrix\n",
    "matrix = np.random.rand(10, 10)\n",
    "size = 10\n",
    "num_aug = 4\n",
    "note_levels = np.ones(size - num_aug)\n",
    "for i in range(size - num_aug):\n",
    "    note_levels[i] = max(0,(int(matrix[size - num_aug + 2, i] * 126)) % 128)\n",
    "\n",
    "print(note_levels)"
   ]
  }
 ],
 "metadata": {
  "kernelspec": {
   "display_name": "learn",
   "language": "python",
   "name": "python3"
  },
  "language_info": {
   "codemirror_mode": {
    "name": "ipython",
    "version": 3
   },
   "file_extension": ".py",
   "mimetype": "text/x-python",
   "name": "python",
   "nbconvert_exporter": "python",
   "pygments_lexer": "ipython3",
   "version": "3.9.16"
  }
 },
 "nbformat": 4,
 "nbformat_minor": 2
}
